<svg xmlns="http://www.w3.org/2000/svg" viewBox="0 0 580 370" width="580" height="370">
  <defs>
    <linearGradient id="grad" x1="0" y1="0" x2="1" y2="0">
      <stop offset="0%" stop-color="#3B82F6"/>
      <stop offset="100%" stop-color="#A855F7"/>
    </linearGradient>
    <mask id="bubbleMask">
      <rect width="580" height="370" fill="white"/>
      <path d="
        M 100,40
        Q 100,30 112,30
        L 230,30
        Q 242,30 242,42
        L 242,125
        Q 242,137 230,137
        L 165,137
        L 145,165
        L 140,137
        L 112,137
        Q 100,137 100,125
        Z
      " fill="black"/>
    </mask>
  </defs>
  
  <g mask="url(#bubbleMask)">
    <!-- P -->
    <path d="
      M 0,0
      L 240,0
      Q 310,0 310,70
      L 310,130
      Q 310,200 240,200
      L 85,200
      L 85,370
      L 0,370
      Z
    " fill="url(#grad)"/>
  </g>
  
  <!-- T (no mask needed) -->
  <path d="
    M 330,0
    L 580,0
    L 580,85
    L 497,85
    L 497,370
    L 413,370
    L 413,85
    L 330,85
    Z
  " fill="url(#grad)"/>
</svg>
